<svg xmlns:xlink="http://www.w3.org/1999/xlink" xmlns="http://www.w3.org/2000/svg" version="1.1" viewBox="0 0 1024 1024" height="1024px" width="1024px">
    <title>头像-女学生2</title>
    <defs>
        <circle r="512" cy="512" cx="512" id="path-1"></circle>
        <rect height="103" width="94" y="0" x="0" id="path-3"></rect>
        <path id="path-5" d="M161,31.6033883 L161,97.3966117 C161,106.730224 153.433612,114.296612 144.1,114.296612 C140.75966,114.296612 137.494234,113.306726 134.716145,111.451976 L80.5,75.255375 L80.5,75.255375 L26.2838546,111.451976 C18.5212911,116.634536 8.02719525,114.54303 2.84463545,106.780466 C0.989885887,104.002378 4.5476829e-15,100.736952 0,97.3966117 L0,31.6033883 C3.00191866e-15,22.269776 7.56638773,14.7033883 16.9,14.7033883 C20.2403403,14.7033883 23.5057658,15.6932742 26.2838546,17.5480237 L80.5,53.744625 L80.5,53.744625 L134.716145,17.5480237 C142.478709,12.3654639 152.972805,14.4569702 158.155365,22.2195337 C160.010114,24.9976224 161,28.263048 161,31.6033883 Z"></path>
    </defs>
    <g fill-rule="evenodd" fill="none" stroke-width="1" stroke="none" id="头像-女学生2">
        <rect height="1024" width="1024" y="0" x="0" fill="#FFFFFF"></rect>
        <mask fill="white" id="mask-2">
            <use xlink:href="#path-1"></use>
        </mask>
        <use xlink:href="#path-1" fill="#6E66D4" fill-opacity="0.2" id="蒙版"></use>
        <g mask="url(#mask-2)" id="编组-2">
            <g id="编组" transform="translate(190.406054, 196.000000)">
                <path fill="#110D2E" id="路径-36" d="M95.1886064,656.491503 C88.2239003,530.920311 100.828848,468.134716 133.003449,468.134716 L133.003449,426.669712 C64.7685767,432.137205 20.8588614,477.210563 1.27430308,561.889784 C-6.91762473,632.825091 24.387143,664.358997 95.1886064,656.491503 Z"></path>
                <path transform="translate(576.501725, 542.169712) scale(-1, 1) translate(-576.501725, -542.169712)" fill="#110D2E" id="路径-36备份" d="M605.188606,656.491503 C598.2239,530.920311 610.828848,468.134716 643.003449,468.134716 L643.003449,426.669712 C574.768577,432.137205 530.858861,477.210563 511.274303,561.889784 C503.082375,632.825091 534.387143,664.358997 605.188606,656.491503 Z"></path>
                <path fill="#110D2E" id="矩形" d="M44.5939457,318 L599.593946,318 L599.593946,383 C599.593946,432.153343 559.747288,472 510.593946,472 L133.593946,472 C84.440603,472 44.5939457,432.153343 44.5939457,383 L44.5939457,318 L44.5939457,318 Z"></path>
                <ellipse ry="260" rx="308.001035" cy="260.5" cx="321.593946" fill="#110D2E" stroke="#979797" id="椭圆形"></ellipse>
                <path fill="#FBB4B4" id="椭圆形备份-4" d="M85.0439076,433.825133 C102.501588,425.24543 105.125167,401.292664 90.9038348,380.325133 C76.6825025,359.357603 51.0015883,349.315285 33.5439076,357.894989 C16.0862268,366.474693 13.462648,390.427459 27.6839803,411.394989 C41.9053127,432.362519 67.5862268,442.404837 85.0439076,433.825133 Z"></path>
                <path fill="#FBB4B4" id="椭圆形备份-12" d="M557.543908,433.825133 C540.086227,425.24543 537.462648,401.292664 551.68398,380.325133 C565.905313,359.357603 591.586227,349.315285 609.043908,357.894989 C626.501588,366.474693 629.125167,390.427459 614.903835,411.394989 C600.682503,432.362519 575.001588,442.404837 557.543908,433.825133 Z"></path>
                <ellipse ry="269" rx="344" cy="929" cx="321.593946" transform="translate(321.593946, 929.000000) rotate(-90.000000) translate(-321.593946, -929.000000)" fill="#6E66D4" id="椭圆形"></ellipse>
                <line stroke-linejoin="round" stroke-linecap="round" opacity="0.106926328" stroke-width="7" stroke="#000000" id="路径-6" y2="843.636012" x2="163.093946" y1="757.5" x1="189.093946"></line>
                <line transform="translate(467.093946, 800.337686) scale(-1, 1) translate(-467.093946, -800.337686)" stroke-linejoin="round" stroke-linecap="round" opacity="0.106926328" stroke-width="7" stroke="#000000" id="路径-6备份" y2="843.636012" x2="454.093946" y1="757.5" x1="480.093946"></line>
                <g transform="translate(274.593946, 516.000000)" id="椭圆形备份-11">
                    <mask fill="white" id="mask-4">
                        <use xlink:href="#path-3"></use>
                    </mask>
                    <use xlink:href="#path-3" fill="#FFCACA" id="蒙版"></use>
                    <ellipse ry="47" rx="79" cy="5" cx="47" mask="url(#mask-4)" opacity="0.214906238" style="mix-blend-mode: multiply;" fill="#EC8484"></ellipse>
                </g>
                <ellipse ry="225" rx="255" cy="328" cx="321.593946" fill="#FFCACA" id="椭圆形"></ellipse>
                <path stroke-linejoin="round" stroke-linecap="round" stroke-width="8" stroke="#FF9494" id="路径-5备份" d="M311.593946,398 L311.593946,424 C311.593946,431.731986 317.861959,438 325.593946,438 L332.426895,438 L332.426895,438"></path>
                <circle r="19" cy="371" cx="224.593946" fill="#110D2E" id="椭圆形"></circle>
                <circle r="19" cy="371" cx="418.593946" fill="#110D2E" id="椭圆形备份-7"></circle>
                <g transform="translate(241.593946, 554.000000)" id="椭圆形">
                    <mask fill="white" id="mask-6">
                        <use xlink:href="#path-5"></use>
                    </mask>
                    <use xlink:href="#path-5" fill-rule="nonzero" fill="#3C3596" id="蒙版"></use>
                    <ellipse ry="21" rx="5" cy="64" cx="81" mask="url(#mask-6)" opacity="0.558576311" fill="#FFFFFF"></ellipse>
                </g>
                <path stroke-linejoin="round" stroke-linecap="round" stroke-width="10" stroke="#EC8484" id="路径-35" d="M278.593946,484.5 L285.218285,487.361861 C308.097007,497.245976 334.228471,496.192959 356.237704,484.5 L356.237704,484.5 L356.237704,484.5"></path>
                <path stroke-linejoin="round" stroke-linecap="round" stroke-width="6" stroke="#110D2E" id="路径-4备份" d="M189.593946,323.628741 C203.712138,319.876247 215.2016,318 224.062332,318 C232.923065,318 244.685825,319.876247 259.350614,323.628741"></path>
                <path transform="translate(418.472280, 320.814370) scale(-1, 1) translate(-418.472280, -320.814370)" stroke-linejoin="round" stroke-linecap="round" stroke-width="6" stroke="#110D2E" id="路径-4备份-2" d="M383.593946,323.628741 C397.712138,319.876247 409.2016,318 418.062332,318 C426.923065,318 438.685825,319.876247 453.350614,323.628741"></path>
                <path fill="#110D2E" id="路径-37" d="M399.593946,154.068701 C276.750514,283.738699 163.317168,350.658722 59.2939076,354.828768 C44.0851396,300.20863 39.1851523,261.195154 44.5939457,237.78834 C50.5837441,211.867198 72.581619,176.88874 110.58757,132.852964 L321.593946,69.3491134 L418.47228,69.3491134 L599.593946,237.78834 L576.593946,361.083837 C523.234898,325.130874 486.60337,295.514757 466.699363,272.235487 C446.795355,248.956216 424.426883,209.567288 399.593946,154.068701 Z"></path>
            </g>
        </g>
    </g>
</svg>