<?xml version="1.0" standalone="no"?><!DOCTYPE svg PUBLIC "-//W3C//DTD SVG 1.1//EN" "http://www.w3.org/Graphics/SVG/1.1/DTD/svg11.dtd"><svg t="1647586380651" class="icon" viewBox="0 0 1024 1024" version="1.1" xmlns="http://www.w3.org/2000/svg" p-id="3493" xmlns:xlink="http://www.w3.org/1999/xlink" width="200" height="200"><defs><style type="text/css"></style></defs><path d="M271.940267 318.685867c48.776533-227.84 353.536-250.436267 423.048533-18.432l1.757867 6.178133 0.802133 0.1024c5.666133 0.631467 11.554133 1.3312 17.646933 2.0992l18.8928 2.5088c46.4384 6.468267 92.910933 15.172267 136.533334 26.4704 22.101333 5.7344 42.9568 11.997867 62.3616 18.875733a34.133333 34.133333 0 0 1-22.766934 64.341334 687.223467 687.223467 0 0 0-56.712533-17.134934c-40.8064-10.581333-84.804267-18.807467-128.8192-24.9344-12.356267-1.723733-23.995733-3.1744-34.7136-4.369066l-16.384-1.706667c-3.2256-0.324267-5.632-0.529067-7.202133-0.6656a34.133333 34.133333 0 0 1-30.839467-27.648c-18.090667-95.0272-80.196267-144.2816-154.5216-139.229867-73.181867 4.9664-134.280533 61.371733-145.3056 145.152a34.133333 34.133333 0 0 1-18.858667 26.2144l-5.2224 2.423467c-9.557333 4.266667-23.466667 9.5744-40.9088 14.813867-56.644267 16.981333-116.6336 22.5792-175.616 9.693866a34.133333 34.133333 0 0 1 14.574934-66.679466c46.165333 10.069333 94.993067 5.512533 141.431466-8.413867 6.0416-1.809067 11.707733-3.6864 16.9984-5.597867l3.2256-1.194666 0.597334-2.8672zM890.794667 803.498667a34.133333 34.133333 0 1 1 37.802666 56.866133c-64.682667 43.008-132.283733 50.2784-248.4224 40.072533l-61.474133-5.870933a1051.733333 1051.733333 0 0 0-38.912-2.986667l-12.561067-0.6144c-31.607467-1.28-64.7168-0.648533-108.4928 1.672534l-45.943466 2.730666-31.829334 1.9456c-133.8368 7.68-198.314667 4.8128-277.0944-18.568533a34.133333 34.133333 0 0 1 19.438934-65.450667l9.352533 2.679467c63.5904 17.578667 121.617067 19.968 236.4416 13.6192l67.515733-4.096 19.8656-1.109333c48.059733-2.5088 84.2752-3.072 120.081067-1.348267l13.550933 0.768c12.5952 0.802133 24.507733 1.792 43.2128 3.566933l44.987734 4.334934 15.616 1.365333c96.546133 7.936 150.135467 1.501867 196.864-29.559467z" fill="#444444" p-id="3494"></path><path d="M544.324267 408.337067a50.210133 50.210133 0 0 1-8.874667-1.553067c-24.7808-6.7072-40.106667-31.010133-42.427733-51.541333-2.4064-21.265067 8.123733-38.9632 28.1088-47.291734a49.664 49.664 0 0 1 43.5712 2.679467c20.804267 11.690667 31.0272 35.8912 30.3616 53.76a43.485867 43.485867 0 0 1-11.656534 28.501333c-10.410667 11.1616-24.576 16.622933-39.082666 15.445334" fill="#444444" p-id="3495"></path><path d="M705.536 648.533333a34.133333 34.133333 0 0 1 23.296 59.0848l-2.065067 1.774934c-39.936 31.709867-81.186133 37.290667-148.770133 30.4128l-43.861333-4.9152-7.7824-0.7168-5.922134-0.443734c-18.1248-1.2288-36.642133-1.006933-61.952 0.529067l-57.8048 4.061867-14.455466 0.853333c-39.150933 2.048-63.709867 1.194667-91.938134-3.6864L290.133333 734.754133l12.356267-67.140266 6.877867 1.194666 7.133866 1.024c23.808 3.037867 48.5376 2.6112 92.808534-0.512l31.112533-2.286933 14.4896-0.955733c25.429333-1.536 45.2096-1.860267 64.8192-0.785067l10.4448 0.699733 11.52 1.058134c5.2224 0.512 11.264 1.194667 19.268267 2.133333l17.7152 2.048 11.383466 1.160533c45.755733 4.2496 70.912 0.785067 91.767467-14.557866l2.491733-1.8944A33.979733 33.979733 0 0 1 705.536 648.533333z" fill="#00B386" p-id="3496"></path></svg>