<?xml version="1.0" standalone="no"?><!DOCTYPE svg PUBLIC "-//W3C//DTD SVG 1.1//EN" "http://www.w3.org/Graphics/SVG/1.1/DTD/svg11.dtd"><svg t="1647585803874" class="icon" viewBox="0 0 1024 1024" version="1.1" xmlns="http://www.w3.org/2000/svg" p-id="3352" xmlns:xlink="http://www.w3.org/1999/xlink" width="200" height="200"><defs><style type="text/css"></style></defs><path d="M366.933333 119.466667a34.133333 34.133333 0 0 1 33.706667 34.56c-1.6896 134.417067-30.651733 226.184533-85.077333 309.725866l-4.573867 6.826667c-14.062933 20.650667-41.6256 58.658133-44.3392 62.685867-59.562667 87.825067-85.4016 152.746667-77.636267 214.7328 7.543467 60.091733 61.6448 98.577067 124.9792 85.777066a34.133333 34.133333 0 1 1 13.533867 66.901334c-102.109867 20.650667-193.7408-44.544-206.250667-144.1792-10.120533-80.776533 19.234133-157.201067 83.831467-254.0544l6.485333-9.557334c7.645867-10.888533 37.341867-51.933867 46.762667-66.389333 47.496533-72.9088 72.4992-152.1152 74.018133-273.322667A34.133333 34.133333 0 0 1 366.933333 119.466667zM691.2 119.466667a34.133333 34.133333 0 0 1 34.56 33.706666c1.518933 121.207467 26.5216 200.413867 74.018133 273.3056l6.1952 9.181867c13.755733 19.950933 38.621867 54.272 42.018134 59.272533 68.096 100.437333 99.242667 178.705067 88.866133 261.563734-12.4928 99.6352-104.123733 164.846933-206.250667 144.1792a34.133333 34.133333 0 1 1 13.533867-66.901334c63.3344 12.8 117.4528-25.685333 124.9792-85.777066 7.543467-60.245333-16.657067-123.306667-72.7552-207.479467l-4.881067-7.2704c-3.072-4.5056-37.546667-52.053333-48.913066-69.495467-54.4256-83.541333-83.387733-175.3088-85.077334-309.725866A34.133333 34.133333 0 0 1 691.2 119.466667z" fill="#444444" p-id="3353"></path><path d="M656.3328 738.850133c30.378667-34.030933 64.256-43.008 110.592-20.599466a34.133333 34.133333 0 1 1-29.713067 61.457066l-4.949333-2.321066c-11.178667-5.085867-14.336-4.488533-21.777067 3.396266l-3.242666 3.549867c-2.423467 2.730667-19.165867 23.210667-25.378134 30.071467-37.0176 40.891733-81.5104 62.498133-150.289066 62.498133-68.778667 0-113.2544-21.6064-150.272-62.498133l-6.2464-7.202134c-7.441067-8.789333-17.3056-20.821333-19.131734-22.869333l-3.242666-3.549867c-8.430933-8.942933-11.349333-8.4992-26.7264-1.0752a34.133333 34.133333 0 1 1-29.713067-61.44c46.336-22.4256 80.213333-13.431467 110.592 20.599467l22.152533 26.368c1.194667 1.399467 2.218667 2.56 2.935467 3.362133 24.576 27.170133 51.080533 40.0384 99.669333 40.0384 48.554667 0 75.0592-12.868267 99.669334-40.0384l4.846933-5.632c6.826667-8.072533 17.288533-20.821333 20.224-24.1152z" fill="#444444" p-id="3354"></path><path d="M390.792533 454.1952l63.010134 26.2656-14.6944 35.618133-3.413334 8.567467c-2.5088 6.485333-4.334933 11.5712-6.331733 17.476267l-1.2288 3.652266c-10.871467 32.768-14.7456 59.921067-11.434667 88.4224l0.8192 6.144a34.133333 34.133333 0 0 1-66.952533 12.8512l-0.682667-3.515733 0.136534 0.853333c-6.0416-39.9872-2.030933-77.038933 10.820266-118.442666l4.608-14.08 2.338134-6.656c1.962667-5.495467 4.078933-11.025067 6.946133-18.176l16.059733-38.980267z" fill="#00B386" p-id="3355"></path></svg>