<?xml version="1.0" encoding="utf-8"?>
<!-- Generator: Adobe Illustrator 16.0.0, SVG Export Plug-In . SVG Version: 6.00 Build 0)  -->
<!DOCTYPE svg PUBLIC "-//W3C//DTD SVG 1.1//EN" "http://www.w3.org/Graphics/SVG/1.1/DTD/svg11.dtd">
<svg version="1.1" id="图层_1" xmlns="http://www.w3.org/2000/svg" xmlns:xlink="http://www.w3.org/1999/xlink" x="0px" y="0px"
	 width="960px" height="540px" viewBox="0 0 960 540" enable-background="new 0 0 960 540" xml:space="preserve">
<g id="组_766">
	<path id="路径_1806" opacity="0.2" fill="#69BAF9" enable-background="new    " d="M820,509.85c0-187.776-152.223-340-340-340
		c-187.777,0-340,152.223-340,340"/>
	<path id="路径_1807" opacity="0.5" fill="#69BAF9" enable-background="new    " d="M727.618,509.85
		c0-136.812-110.908-247.72-247.719-247.72c-136.812,0-247.72,110.908-247.72,247.72"/>
	<path id="路径_1808" opacity="0.7" fill="#69BAF9" enable-background="new    " d="M635.6,509.85
		c0.219-85.755-69.122-155.45-154.878-155.668c-85.755-0.219-155.45,69.122-155.669,154.878c0,0.263,0,0.526,0,0.79"/>
</g>
<g id="组_764" transform="translate(-72.295)">
	
		<line id="直线_15" fill="none" stroke="#3D3D63" stroke-width="10" stroke-linecap="round" x1="807.295" y1="505" x2="543.295" y2="505"/>
	
		<line id="直线_16" fill="none" stroke="#3D3D63" stroke-width="10" stroke-linecap="round" x1="886.295" y1="505" x2="828.295" y2="505"/>
	
		<line id="直线_18" fill="none" stroke="#3D3D63" stroke-width="10" stroke-linecap="round" x1="491.295" y1="505" x2="431.295" y2="505"/>
	
		<line id="直线_259" fill="none" stroke="#3D3D63" stroke-width="10" stroke-linecap="round" x1="396.295" y1="505" x2="218.295" y2="505"/>
	<ellipse id="椭圆_336" fill="#3D3D63" cx="514.295" cy="505" rx="5" ry="4"/>
</g>
<path fill="#EEEEEE" d="M568.272,239.505h126.895l0,0v234.99l0,0H543.833l0,0V263.944
	C543.833,250.446,554.774,239.505,568.272,239.505z"/>
<path fill="none" stroke="#3D3D63" stroke-width="20" d="M565,242h115c5.522,0,10,4.477,10,10v210c0,5.522-4.478,10-10,10H559
	c-5.522,0-10-4.478-10-10V258C549,249.164,556.163,242,565,242z"/>
<path fill="#EEEEEE" d="M266.333,241.834h124.378c13.23,0,23.955,10.725,23.955,23.955v206.376l0,0H266.333l0,0V241.834
	L266.333,241.834z"/>
<path fill="none" stroke="#3D3D63" stroke-width="20" d="M280,242h115c8.837,0,16,7.164,16,16v204c0,5.522-4.478,10-10,10H280
	c-5.523,0-10-4.478-10-10V252C270,246.477,274.477,242,280,242z"/>
<path fill="#EEEEEE" d="M447.917,101.542h64.167c35.438,0,64.167,28.729,64.167,64.167v299.75l0,0h-192.5l0,0v-299.75
	C383.75,130.27,412.478,101.542,447.917,101.542z"/>
<path fill="none" stroke="#3D3D63" stroke-width="20" d="M445,95h70c33.137,0,60,26.863,60,60v307c0,5.522-4.478,10-10,10H395
	c-5.522,0-10-4.478-10-10V155C385,121.863,411.863,95,445,95z"/>
<rect x="425.166" y="358.555" fill="#FFFFFF" width="109.668" height="114.891"/>
<rect x="427" y="360" fill="none" stroke="#3D3D63" stroke-width="20" width="106" height="112"/>
<line id="直线_343" fill="none" stroke="#3D3D63" stroke-width="20" stroke-linecap="round" x1="412" y1="360" x2="548" y2="360"/>
<line id="直线_344" fill="none" stroke="#3D3D63" stroke-width="20" x1="462" y1="350" x2="462" y2="482"/>
<line id="直线_345" fill="none" stroke="#3D3D63" stroke-width="20" x1="498" y1="350" x2="498" y2="482"/>
<g id="矩形_1357" transform="translate(434 270)">
	<path fill="#FFFFFF" d="M12,0h14c6.627,0,12,5.373,12,12v31c0,6.627-5.373,12-12,12H12C5.373,55,0,49.627,0,43V12
		C0,5.373,5.373,0,12,0z"/>
	<path fill="none" stroke="#3D3D63" stroke-width="10" d="M12,5h14c3.866,0,7,3.134,7,7v31c0,3.866-3.134,7-7,7H12
		c-3.866,0-7-3.134-7-7V12C5,8.134,8.134,5,12,5z"/>
</g>
<g id="矩形_1357-2" transform="translate(488 270)">
	<path fill="#FFFFFF" d="M12,0h14c6.627,0,12,5.373,12,12v31c0,6.627-5.373,12-12,12H12C5.373,55,0,49.627,0,43V12
		C0,5.373,5.373,0,12,0z"/>
	<path fill="none" stroke="#3D3D63" stroke-width="10" d="M12,5h14c3.866,0,7,3.134,7,7v31c0,3.866-3.134,7-7,7H12
		c-3.866,0-7-3.134-7-7V12C5,8.134,8.134,5,12,5z"/>
</g>
<line id="直线_239" fill="none" stroke="#F4494E" stroke-width="30" x1="447" y1="203" x2="513" y2="203"/>
<line id="直线_346" fill="none" stroke="#F4494E" stroke-width="30" x1="480" y1="169" x2="480" y2="235"/>
<path id="路径_2272" fill="#FFFFFF" stroke="#3D3D63" stroke-width="20" stroke-linecap="round" stroke-linejoin="round" d="
	M575,199h115.544l19.9,42.839H575V199z"/>
<path id="路径_2274" fill="#FFFFFF" stroke="#3D3D63" stroke-width="20" stroke-linecap="round" stroke-linejoin="round" d="
	M384.442,199H268.9L249,241.839h135.442V199z"/>
<path id="联合_32" fill="#FFFFFF" stroke="#3D3D63" stroke-width="20" stroke-linecap="round" stroke-linejoin="round" d="
	M480,108.563L382.348,164L361,127.64l118.7-67.387L479.849,60l0.149,0.084L480.146,60l0.149,0.253l118.7,67.387L577.652,164
	L480,108.563z"/>
<g id="矩形_1364" transform="translate(588 280)">
	<path fill="#FFFFFF" d="M10,0h20c5.522,0,10,4.477,10,10v20c0,5.523-4.478,10-10,10H10C4.478,40,0,35.523,0,30V10
		C0,4.477,4.478,0,10,0z"/>
	<path fill="none" stroke="#3D3D63" stroke-width="10" d="M10,5h20c2.762,0,5,2.238,5,5v20c0,2.762-2.238,5-5,5H10
		c-2.762,0-5-2.238-5-5V10C5,7.238,7.238,5,10,5z"/>
</g>
<g id="矩形_1364-2" transform="translate(637 280)">
	<path fill="#FFFFFF" d="M10,0h20c5.522,0,10,4.477,10,10v20c0,5.523-4.478,10-10,10H10C4.478,40,0,35.523,0,30V10
		C0,4.477,4.478,0,10,0z"/>
	<path fill="none" stroke="#3D3D63" stroke-width="10" d="M10,5h20c2.762,0,5,2.238,5,5v20c0,2.762-2.238,5-5,5H10
		c-2.762,0-5-2.238-5-5V10C5,7.238,7.238,5,10,5z"/>
</g>
<g id="矩形_1364-3" transform="translate(588 340)">
	<path fill="#FFFFFF" d="M10,0h20c5.522,0,10,4.477,10,10v20c0,5.523-4.478,10-10,10H10C4.478,40,0,35.523,0,30V10
		C0,4.477,4.478,0,10,0z"/>
	<path fill="none" stroke="#3D3D63" stroke-width="10" d="M10,5h20c2.762,0,5,2.238,5,5v20c0,2.762-2.238,5-5,5H10
		c-2.762,0-5-2.238-5-5V10C5,7.238,7.238,5,10,5z"/>
</g>
<g id="矩形_1364-4" transform="translate(637 340)">
	<path fill="#FFFFFF" d="M10,0h20c5.522,0,10,4.477,10,10v20c0,5.523-4.478,10-10,10H10C4.478,40,0,35.523,0,30V10
		C0,4.477,4.478,0,10,0z"/>
	<path fill="none" stroke="#3D3D63" stroke-width="10" d="M10,5h20c2.762,0,5,2.238,5,5v20c0,2.762-2.238,5-5,5H10
		c-2.762,0-5-2.238-5-5V10C5,7.238,7.238,5,10,5z"/>
</g>
<g id="矩形_1364-5" transform="translate(283 280)">
	<path fill="#FFFFFF" d="M10,0h20c5.522,0,10,4.477,10,10v20c0,5.523-4.478,10-10,10H10C4.477,40,0,35.523,0,30V10
		C0,4.477,4.477,0,10,0z"/>
	<path fill="none" stroke="#3D3D63" stroke-width="10" d="M10,5h20c2.762,0,5,2.238,5,5v20c0,2.762-2.238,5-5,5H10
		c-2.761,0-5-2.238-5-5V10C5,7.238,7.239,5,10,5z"/>
</g>
<g id="矩形_1364-6" transform="translate(332 280)">
	<path fill="#FFFFFF" d="M10,0h20c5.522,0,10,4.477,10,10v20c0,5.523-4.478,10-10,10H10C4.478,40,0,35.523,0,30V10
		C0,4.477,4.478,0,10,0z"/>
	<path fill="none" stroke="#3D3D63" stroke-width="10" d="M10,5h20c2.762,0,5,2.238,5,5v20c0,2.762-2.238,5-5,5H10
		c-2.762,0-5-2.238-5-5V10C5,7.238,7.238,5,10,5z"/>
</g>
<g id="矩形_1364-7" transform="translate(283 340)">
	<path fill="#FFFFFF" d="M10,0h20c5.522,0,10,4.477,10,10v20c0,5.523-4.478,10-10,10H10C4.477,40,0,35.523,0,30V10
		C0,4.477,4.477,0,10,0z"/>
	<path fill="none" stroke="#3D3D63" stroke-width="10" d="M10,5h20c2.762,0,5,2.238,5,5v20c0,2.762-2.238,5-5,5H10
		c-2.761,0-5-2.238-5-5V10C5,7.238,7.239,5,10,5z"/>
</g>
<g id="矩形_1364-8" transform="translate(332 340)">
	<path fill="#FFFFFF" d="M10,0h20c5.522,0,10,4.477,10,10v20c0,5.523-4.478,10-10,10H10C4.478,40,0,35.523,0,30V10
		C0,4.477,4.478,0,10,0z"/>
	<path fill="none" stroke="#3D3D63" stroke-width="10" d="M10,5h20c2.762,0,5,2.238,5,5v20c0,2.762-2.238,5-5,5H10
		c-2.762,0-5-2.238-5-5V10C5,7.238,7.238,5,10,5z"/>
</g>
<g id="联合_33" transform="translate(2422 5723)">
	<path fill="#BDF39A" d="M-2106.219-5246.001h-39.814c-5.593,0-10.854-2.195-14.813-6.185c-3.969-3.999-6.154-9.317-6.154-14.978
		s2.186-10.979,6.154-14.977c3.958-3.989,9.219-6.186,14.813-6.186c1.464,0,2.925,0.152,4.344,0.454l4.087,0.868l1.58-3.868
		c1.197-2.929,2.814-5.666,4.807-8.134c1.978-2.449,4.29-4.593,6.875-6.37c5.351-3.68,11.617-5.625,18.122-5.625
		c4.348,0,8.562,0.856,12.527,2.547c3.834,1.634,7.28,3.975,10.241,6.959c2.964,2.985,5.29,6.462,6.915,10.333
		c1.682,4.008,2.535,8.268,2.535,12.661s-0.854,8.654-2.535,12.661c-1.625,3.871-3.951,7.348-6.915,10.333
		c-2.961,2.983-6.406,5.324-10.241,6.959C-2097.656-5246.857-2101.871-5246.001-2106.219-5246.001z"/>
	<path fill="#3D3D63" d="M-2106.219-5251.001c15.009,0,27.219-12.336,27.219-27.499c0-15.164-12.21-27.5-27.219-27.5
		c-11.069,0-20.951,6.681-25.175,17.02c-1.561,3.819-5.262,6.22-9.253,6.22c-0.688,0-1.386-0.072-2.082-0.22
		c-1.078-0.229-2.19-0.345-3.305-0.345c-8.804,0-15.967,7.25-15.967,16.162s7.163,16.162,15.967,16.162H-2106.219
		 M-2106.219-5241.001h-39.814c-14.341,0-25.967-11.713-25.967-26.162s11.626-26.162,25.967-26.162c1.845,0,3.646,0.194,5.382,0.563
		c5.571-13.636,18.889-23.237,34.432-23.237c20.555,0,37.219,16.79,37.219,37.5S-2085.664-5241.001-2106.219-5241.001z"/>
</g>
<g id="联合_34" transform="translate(710 482) rotate(180)">
	<path fill="#BDF39A" d="M65.782,70c-6.505,0-12.772-1.945-18.123-5.625c-2.585-1.777-4.897-3.921-6.875-6.37
		c-1.992-2.469-3.609-5.205-4.806-8.134l-1.581-3.868l-4.087,0.868c-1.418,0.301-2.88,0.454-4.344,0.454
		c-5.593,0-10.854-2.197-14.813-6.186C7.186,37.142,5,31.822,5,26.163c0-5.66,2.186-10.979,6.154-14.979
		C15.113,7.196,20.374,5,25.967,5h39.815c4.347,0,8.562,0.856,12.526,2.547c3.835,1.634,7.28,3.976,10.241,6.959
		c2.964,2.985,5.29,6.462,6.915,10.332C97.147,28.846,98,33.105,98,37.499c0,4.395-0.853,8.654-2.535,12.662
		c-1.625,3.87-3.951,7.347-6.915,10.333c-2.961,2.983-6.406,5.324-10.241,6.959C74.344,69.143,70.129,70,65.782,70z"/>
	<path fill="#3D3D63" d="M25.967,10C17.163,10,10,17.251,10,26.162c0,8.912,7.163,16.162,15.967,16.162
		c1.115,0,2.228-0.115,3.306-0.345c0.696-0.147,1.393-0.219,2.081-0.219c3.991,0,7.693,2.4,9.253,6.219
		C44.83,58.319,54.712,65,65.782,65C80.79,65,93,52.663,93,37.5C93,22.336,80.79,10,65.782,10H25.967 M25.967,0h39.815
		C86.337,0,103,16.789,103,37.5C103,58.21,86.337,75,65.782,75C50.238,75,36.92,65.398,31.35,51.762
		c-1.736,0.368-3.537,0.563-5.383,0.563C11.626,52.325,0,40.612,0,26.162C0,11.713,11.626,0,25.967,0z"/>
</g>
<g id="椭圆_482" transform="translate(654 309)">
	<ellipse fill="#A4DA86" cx="51.5" cy="70" rx="51.5" ry="70"/>
	<ellipse fill="none" stroke="#3D3D63" stroke-width="10" stroke-linecap="round" cx="51.5" cy="70" rx="46.5" ry="65"/>
</g>
<line id="直线_347" fill="none" stroke="#3D3D63" stroke-width="10" stroke-linecap="round" x1="705.5" y1="477" x2="705.5" y2="377"/>
<line id="直线_348" fill="none" stroke="#3D3D63" stroke-width="10" stroke-linecap="round" x1="705.5" y1="402.5" x2="725.5" y2="382.5"/>
<g id="椭圆_482-2" transform="translate(203 309)">
	<ellipse fill="#A4DA86" cx="51.5" cy="70" rx="51.5" ry="70"/>
	<ellipse fill="none" stroke="#3D3D63" stroke-width="10" stroke-linecap="round" cx="51.5" cy="70" rx="46.5" ry="65"/>
</g>
<g id="组_1046" transform="translate(-472 -5)">
	
		<line id="直线_347-2" fill="none" stroke="#3D3D63" stroke-width="10" stroke-linecap="round" x1="726.5" y1="482" x2="726.5" y2="382"/>
	
		<line id="直线_348-2" fill="none" stroke="#3D3D63" stroke-width="10" stroke-linecap="round" x1="726.5" y1="407.5" x2="746.5" y2="387.5"/>
</g>
<g id="组_1045" transform="translate(218.154 88.283)">
	<g id="路径_1850" transform="translate(480.051 58.16)">
		<path fill="none" d="M12.99,0C20.164,0,25.98,5.816,25.98,12.99S20.164,25.98,12.99,25.98C5.816,25.98,0,20.164,0,12.99
			S5.816,0,12.99,0z"/>
		<path fill="#8682F8" d="M12.989,8C10.238,8,8,10.238,8,12.99s2.238,4.99,4.989,4.99c2.752,0,4.99-2.238,4.99-4.99
			S15.741,8,12.989,8 M12.989,0c7.174,0,12.99,5.816,12.99,12.99s-5.816,12.99-12.99,12.99S0,20.163,0,12.99S5.816,0,12.989,0z"/>
	</g>
	<g id="路径_1851" transform="translate(0 128.16)">
		<path fill="none" d="M17.42,0c9.621,0,17.42,7.799,17.42,17.42c0,9.621-7.799,17.42-17.42,17.42C7.799,34.84,0,27.041,0,17.42
			C0,7.799,7.799,0,17.42,0z"/>
		<path fill="#8682F8" d="M17.42,8C12.226,8,8,12.226,8,17.42s4.226,9.42,9.42,9.42s9.42-4.226,9.42-9.42S22.615,8,17.42,8 M17.42,0
			c9.621,0,17.42,7.799,17.42,17.42c0,9.621-7.799,17.42-17.42,17.42S0,27.041,0,17.42C0,7.799,7.799,0,17.42,0z"/>
	</g>
	<g id="路径_1849" transform="translate(488.242 326.76)">
		<path fill="none" d="M14.127,0c7.802,0,14.127,6.325,14.127,14.127s-6.325,14.127-14.127,14.127C6.325,28.254,0,21.929,0,14.127
			S6.325,0,14.127,0z"/>
		<path fill="#8682F8" d="M14.127,8C10.749,8,8,10.749,8,14.127c0,3.379,2.748,6.127,6.127,6.127c3.378,0,6.127-2.748,6.127-6.127
			C20.254,10.749,17.505,8,14.127,8 M14.127,0c7.802,0,14.127,6.325,14.127,14.127s-6.325,14.127-14.127,14.127
			C6.325,28.254,0,21.929,0,14.127S6.325,0,14.127,0z"/>
	</g>
	<g id="组_804" transform="translate(304.951 62.858)">
		
			<line id="直线_271" fill="none" stroke="#8682F8" stroke-width="8" stroke-linecap="round" x1="0" y1="10.44" x2="20.88" y2="10.44"/>
		
			<line id="直线_272" fill="none" stroke="#8682F8" stroke-width="8" stroke-linecap="round" x1="10.44" y1="0" x2="10.44" y2="20.88"/>
	</g>
	<g id="组_801" transform="translate(30.074 369.014)">
		
			<line id="直线_273" fill="none" stroke="#8682F8" stroke-width="8" stroke-linecap="round" x1="0" y1="13.302" x2="24.703" y2="13.302"/>
		
			<line id="直线_274" fill="none" stroke="#8682F8" stroke-width="8" stroke-linecap="round" x1="12.352" y1="0" x2="12.352" y2="24.703"/>
	</g>
	<g id="组_803" transform="translate(111.846 0)">
		<g id="组_775">
			<g id="组_770" transform="translate(20.007)">
				
					<line id="直线_269" fill="none" stroke="#8682F8" stroke-width="8" stroke-linecap="round" x1="0" y1="32.692" x2="0" y2="40.014"/>
				<line id="直线_270" fill="none" stroke="#8682F8" stroke-width="8" stroke-linecap="round" x1="0" y1="0" x2="0" y2="7.322"/>
			</g>
			<g id="组_771" transform="translate(40.014 20.007) rotate(90)">
				
					<line id="直线_269-2" fill="none" stroke="#8682F8" stroke-width="8" stroke-linecap="round" x1="0" y1="32.692" x2="0" y2="40.014"/>
				
					<line id="直线_270-2" fill="none" stroke="#8682F8" stroke-width="8" stroke-linecap="round" x1="0" y1="0" x2="0" y2="7.322"/>
			</g>
			<g id="组_772" transform="translate(34.154 5.86) rotate(45)">
				
					<line id="直线_269-3" fill="none" stroke="#8682F8" stroke-width="8" stroke-linecap="round" x1="0" y1="32.692" x2="0" y2="40.014"/>
				
					<line id="直线_270-3" fill="none" stroke="#8682F8" stroke-width="8" stroke-linecap="round" x1="0" y1="0" x2="0" y2="7.322"/>
			</g>
			<g id="组_773" transform="translate(34.154 34.154) rotate(135)">
				
					<line id="直线_269-4" fill="none" stroke="#8682F8" stroke-width="8" stroke-linecap="round" x1="0" y1="7.322" x2="0" y2="0"/>
				
					<line id="直线_270-4" fill="none" stroke="#8682F8" stroke-width="8" stroke-linecap="round" x1="0" y1="40.014" x2="0" y2="32.692"/>
			</g>
		</g>
	</g>
	<g id="组_802" transform="translate(482.831 213)">
		<g id="组_775-2">
			<g id="组_770-2" transform="translate(20.007)">
				
					<line id="直线_269-5" fill="none" stroke="#8682F8" stroke-width="8" stroke-linecap="round" x1="0" y1="32.692" x2="0" y2="40.014"/>
				
					<line id="直线_270-5" fill="none" stroke="#8682F8" stroke-width="8" stroke-linecap="round" x1="0" y1="0" x2="0" y2="7.322"/>
			</g>
			<g id="组_771-2" transform="translate(40.014 20.007) rotate(90)">
				
					<line id="直线_269-6" fill="none" stroke="#8682F8" stroke-width="8" stroke-linecap="round" x1="0" y1="32.692" x2="0" y2="40.014"/>
				
					<line id="直线_270-6" fill="none" stroke="#8682F8" stroke-width="8" stroke-linecap="round" x1="0" y1="0" x2="0" y2="7.322"/>
			</g>
			<g id="组_772-2" transform="translate(34.154 5.86) rotate(45)">
				
					<line id="直线_269-7" fill="none" stroke="#8682F8" stroke-width="8" stroke-linecap="round" x1="0" y1="32.692" x2="0" y2="40.014"/>
				
					<line id="直线_270-7" fill="none" stroke="#8682F8" stroke-width="8" stroke-linecap="round" x1="-0.001" y1="0" x2="0" y2="7.322"/>
			</g>
			<g id="组_773-2" transform="translate(34.154 34.154) rotate(135)">
				
					<line id="直线_269-8" fill="none" stroke="#8682F8" stroke-width="8" stroke-linecap="round" x1="0" y1="7.322" x2="0.001" y2="0"/>
				
					<line id="直线_270-8" fill="none" stroke="#8682F8" stroke-width="8" stroke-linecap="round" x1="0" y1="40.014" x2="0" y2="32.692"/>
			</g>
		</g>
	</g>
</g>
</svg>
